<?xml version="1.0" standalone="no"?>
<!DOCTYPE svg PUBLIC "-//W3C//DTD SVG 20010904//EN"
        "http://www.w3.org/TR/2001/REC-SVG-20010904/DTD/svg10.dtd">
<svg version="1.0" xmlns="http://www.w3.org/2000/svg"
     width="16" height="16" viewBox="0 0 16 16">

    <g fill="#ffffff" stroke="none">
        <path transform="translate(1.0,15.2) scale(0.0028,-0.0028)" d="M600 4220 l0 -900 -175 0 -175 0 0 -1365 0 -1365 175 0 175 0 0 -295
0 -295 1960 0 1960 0 0 295 0 295 175 0 175 0 0 1365 0 1365 -175 0 -175 0 0
258 0 257 -643 643 -642 642 -1318 0 -1317 0 0 -900z m2420 0 l0 -600 600 0
600 0 0 -150 0 -150 -1660 0 -1660 0 0 750 0 750 1060 0 1060 0 0 -600z m645
40 l340 -340 -343 0 -342 0 0 340 c0 187 1 340 3 340 1 0 155 -153 342 -340z
m905 -2305 l0 -1065 -2010 0 -2010 0 0 1065 0 1065 2010 0 2010 0 0 -1065z
m-350 -1510 l0 -145 -1660 0 -1660 0 0 145 0 145 1660 0 1660 0 0 -145z"/>
    </g>
</svg>
